<?xml version="1.0" encoding="UTF-8"?>
<!DOCTYPE svg PUBLIC "-//W3C//DTD SVG 1.1//EN" "http://www.w3.org/Graphics/SVG/1.1/DTD/svg11.dtd">
<svg xmlns="http://www.w3.org/2000/svg" version="1.1" width="512px" height="512px" style="shape-rendering:geometricPrecision; text-rendering:geometricPrecision; image-rendering:optimizeQuality; fill-rule:evenodd; clip-rule:evenodd" xmlns:xlink="http://www.w3.org/1999/xlink">
<g><path style="opacity:0.989" fill="#fffdfc" d="M 232.5,-0.5 C 247.5,-0.5 262.5,-0.5 277.5,-0.5C 353.976,9.14819 412.809,46.4815 454,111.5C 484.557,166.138 492.891,224.138 479,285.5C 473.566,308.695 464.566,330.362 452,350.5C 395.208,434.752 316.041,470.085 214.5,456.5C 209.311,454.53 203.978,453.196 198.5,452.5C 196.562,450.837 194.228,450.171 191.5,450.5C 189.485,449.076 187.152,448.41 184.5,448.5C 140.765,433.798 104.432,408.464 75.5,372.5C 74.675,371.614 73.675,371.281 72.5,371.5C 32.7791,318.772 17.6124,259.438 27,193.5C 35.9573,138.598 61.124,92.7643 102.5,56C 139.829,23.4964 183.162,4.66303 232.5,-0.5 Z"/></g>
<g><path style="opacity:1" fill="#ff953c" d="M 303.5,40.5 C 305.515,41.9238 307.848,42.5905 310.5,42.5C 315.941,44.8709 321.608,46.8709 327.5,48.5C 386.241,73.9084 424.908,117.242 443.5,178.5C 443.41,181.152 444.076,183.485 445.5,185.5C 445.963,188.482 446.296,191.482 446.5,194.5C 446.857,200.082 447.857,205.415 449.5,210.5C 449.5,222.5 449.5,234.5 449.5,246.5C 447.864,254.653 446.531,262.986 445.5,271.5C 437.837,306.17 421.837,336.17 397.5,361.5C 396.957,361.44 396.624,361.107 396.5,360.5C 401,350.167 405.5,339.833 410,329.5C 410.921,322.525 411.588,315.525 412,308.5C 420.161,287.526 424.995,265.859 426.5,243.5C 439.07,230.826 440.903,216.493 432,200.5C 428.817,196.462 424.984,193.462 420.5,191.5C 417.964,180.058 414.13,169.058 409,158.5C 408.506,156.866 408.34,155.199 408.5,153.5C 410.859,128.763 402.526,108.263 383.5,92C 378.031,86.69 371.698,82.8567 364.5,80.5C 361.992,78.446 358.992,77.446 355.5,77.5C 354.833,77.5 354.167,77.5 353.5,77.5C 351.022,76.8359 348.355,76.5025 345.5,76.5C 341.531,76.2942 337.865,76.9608 334.5,78.5C 332.716,78.8925 331.05,79.5592 329.5,80.5C 317.645,75.4092 305.645,70.5759 293.5,66C 259.175,56.706 225.175,57.706 191.5,69C 168.211,78.9434 146.544,91.6101 126.5,107C 115.372,117.135 105.539,128.302 97,140.5C 86.7259,160.216 75.5593,179.216 63.5,197.5C 64.4258,192.537 65.0925,187.537 65.5,182.5C 65.5651,179.572 66.2318,176.905 67.5,174.5C 68.9238,172.485 69.5905,170.152 69.5,167.5C 81.3586,133.452 101.025,104.618 128.5,81C 143.579,67.4571 160.579,56.9571 179.5,49.5C 184.306,48.7915 188.639,47.1249 192.5,44.5C 219.182,35.9486 246.515,33.1152 274.5,36C 284.245,37.0927 293.912,38.5927 303.5,40.5 Z"/></g>
<g><path style="opacity:1" fill="#ffd7b4" d="M 303.5,40.5 C 306.152,40.4095 308.485,41.0762 310.5,42.5C 307.848,42.5905 305.515,41.9238 303.5,40.5 Z"/></g>
<g><path style="opacity:1" fill="#ffd4af" d="M 310.5,42.5 C 316.7,43.3422 322.367,45.3422 327.5,48.5C 321.608,46.8709 315.941,44.8709 310.5,42.5 Z"/></g>
<g><path style="opacity:1" fill="#ffbe86" d="M 192.5,44.5 C 188.639,47.1249 184.306,48.7915 179.5,49.5C 183.459,47.0266 187.793,45.3599 192.5,44.5 Z"/></g>
<g><path style="opacity:1" fill="#ff9e40" d="M 329.5,80.5 C 327.858,81.803 326.191,83.1363 324.5,84.5C 263.163,54.294 204.163,58.4607 147.5,97C 125.536,116.961 105.702,138.794 88,162.5C 69.2856,198.471 62.1189,236.471 66.5,276.5C 65.8333,275.5 65.1667,274.5 64.5,273.5C 64.4613,269.267 63.7947,265.267 62.5,261.5C 62.6382,256.586 61.9715,251.919 60.5,247.5C 60.5,235.833 60.5,224.167 60.5,212.5C 61.4489,208.343 62.1156,204.01 62.5,199.5C 62.5,198.833 62.5,198.167 62.5,197.5C 62.8333,197.5 63.1667,197.5 63.5,197.5C 75.5593,179.216 86.7259,160.216 97,140.5C 105.539,128.302 115.372,117.135 126.5,107C 146.544,91.6101 168.211,78.9434 191.5,69C 225.175,57.706 259.175,56.706 293.5,66C 305.645,70.5759 317.645,75.4092 329.5,80.5 Z"/></g>
<g><path style="opacity:1" fill="#ffa644" d="M 324.5,84.5 C 323.752,86.3325 322.752,87.9991 321.5,89.5C 293.404,77.7931 264.07,72.6264 233.5,74C 215.822,75.8006 198.822,80.1339 182.5,87C 156.126,99.7749 132.626,116.608 112,137.5C 101.499,153.164 91.4994,169.164 82,185.5C 69.9783,211.296 65.6449,238.296 69,266.5C 71.2159,274.482 74.2159,282.149 78,289.5C 82.8055,310.916 91.3055,330.75 103.5,349C 103.272,349.399 102.938,349.565 102.5,349.5C 85.5435,329.259 73.5435,306.259 66.5,280.5C 66.5,279.167 66.5,277.833 66.5,276.5C 62.1189,236.471 69.2856,198.471 88,162.5C 105.702,138.794 125.536,116.961 147.5,97C 204.163,58.4607 263.163,54.294 324.5,84.5 Z"/></g>
<g><path style="opacity:1" fill="#ffab47" d="M 321.5,89.5 C 320.559,91.0495 319.893,92.7162 319.5,94.5C 318.778,94.9175 318.278,95.5842 318,96.5C 317.333,102.833 317.333,109.167 318,115.5C 318.838,119.86 320.338,123.86 322.5,127.5C 322.629,129.216 322.962,130.883 323.5,132.5C 307.053,121.121 288.72,114.455 268.5,112.5C 266.585,112.784 264.919,112.451 263.5,111.5C 223.193,101.752 186.526,109.252 153.5,134C 148.305,138.366 143.305,142.866 138.5,147.5C 124.848,150.077 112.681,155.744 102,164.5C 89.2434,180.351 81.0767,198.351 77.5,218.5C 73.7296,230.589 72.7296,242.922 74.5,255.5C 74.8145,280.145 85.8145,298.145 107.5,309.5C 110.775,316.097 114.442,322.43 118.5,328.5C 119.702,333.761 118.869,338.761 116,343.5C 114.663,350.333 114.163,357 114.5,363.5C 109.383,359.722 105.383,355.055 102.5,349.5C 102.938,349.565 103.272,349.399 103.5,349C 91.3055,330.75 82.8055,310.916 78,289.5C 74.2159,282.149 71.2159,274.482 69,266.5C 65.6449,238.296 69.9783,211.296 82,185.5C 91.4994,169.164 101.499,153.164 112,137.5C 132.626,116.608 156.126,99.7749 182.5,87C 198.822,80.1339 215.822,75.8006 233.5,74C 264.07,72.6264 293.404,77.7931 321.5,89.5 Z"/></g>
<g><path style="opacity:1" fill="#ffbc82" d="M 353.5,77.5 C 347.131,77.347 340.797,77.6803 334.5,78.5C 337.865,76.9608 341.531,76.2942 345.5,76.5C 348.355,76.5025 351.022,76.8359 353.5,77.5 Z"/></g>
<g><path style="opacity:1" fill="#ffbb81" d="M 355.5,77.5 C 358.992,77.446 361.992,78.446 364.5,80.5C 361.215,80.0719 358.215,79.0719 355.5,77.5 Z"/></g>
<g><path style="opacity:1" fill="#fffefd" d="M 353.5,77.5 C 354.167,77.5 354.833,77.5 355.5,77.5C 358.215,79.0719 361.215,80.0719 364.5,80.5C 371.698,82.8567 378.031,86.69 383.5,92C 402.526,108.263 410.859,128.763 408.5,153.5C 406.447,159.434 403.447,164.934 399.5,170C 397.273,170.941 395.273,172.108 393.5,173.5C 386.403,176.022 379.069,177.022 371.5,176.5C 368.779,176.037 366.112,175.371 363.5,174.5C 361.249,173.305 358.915,172.305 356.5,171.5C 353.211,169.229 349.878,166.895 346.5,164.5C 339.895,158.617 334.228,151.95 329.5,144.5C 328.692,141.55 327.358,138.883 325.5,136.5C 324.833,135.167 324.167,133.833 323.5,132.5C 322.962,130.883 322.629,129.216 322.5,127.5C 318.559,116.784 317.559,105.784 319.5,94.5C 319.893,92.7162 320.559,91.0495 321.5,89.5C 322.752,87.9991 323.752,86.3325 324.5,84.5C 326.191,83.1363 327.858,81.803 329.5,80.5C 331.05,79.5592 332.716,78.8925 334.5,78.5C 340.797,77.6803 347.131,77.347 353.5,77.5 Z"/></g>
<g><path style="opacity:1" fill="#ffc452" d="M 263.5,111.5 C 242.329,109.145 221.662,111.145 201.5,117.5C 194.839,117.582 188.506,119.082 182.5,122C 174.574,127.129 166.241,131.463 157.5,135C 145.701,144.465 134.868,154.965 125,166.5C 124.209,167.745 123.709,169.078 123.5,170.5C 122.833,170.5 122.5,170.833 122.5,171.5C 121.609,172.11 120.609,172.443 119.5,172.5C 124.745,163.266 131.078,154.933 138.5,147.5C 143.305,142.866 148.305,138.366 153.5,134C 186.526,109.252 223.193,101.752 263.5,111.5 Z"/></g>
<g><path style="opacity:1" fill="#ffe763" d="M 263.5,111.5 C 264.919,112.451 266.585,112.784 268.5,112.5C 277.833,116.449 287.499,119.949 297.5,123C 306.893,127.866 316.226,132.366 325.5,136.5C 327.358,138.883 328.692,141.55 329.5,144.5C 329.631,145.239 329.464,145.906 329,146.5C 295.062,119.304 256.562,110.137 213.5,119C 206.742,120.69 200.075,122.69 193.5,125C 183.976,129.928 174.309,134.595 164.5,139C 155.579,146.42 147.579,154.586 140.5,163.5C 139.139,165.527 137.473,167.194 135.5,168.5C 133.5,168.833 131.5,169.167 129.5,169.5C 128.167,169.5 126.833,169.5 125.5,169.5C 135.319,158.597 146.319,149.097 158.5,141C 172.283,132.11 186.616,124.276 201.5,117.5C 221.662,111.145 242.329,109.145 263.5,111.5 Z"/></g>
<g><path style="opacity:1" fill="#fff068" d="M 329.5,144.5 C 334.228,151.95 339.895,158.617 346.5,164.5C 346.196,165.15 345.863,165.817 345.5,166.5C 347.616,170.96 349.116,175.627 350,180.5C 352.472,195.058 353.972,209.725 354.5,224.5C 353.999,241.824 353.832,259.157 354,276.5C 353.901,278.653 353.067,280.319 351.5,281.5C 347.748,278.959 344.415,275.959 341.5,272.5C 342.5,272.5 343.5,272.5 344.5,272.5C 348.66,236.05 346.16,200.05 337,164.5C 329.426,154.294 320.259,145.794 309.5,139C 286.196,126.623 261.53,122.623 235.5,127C 221.198,130.408 207.198,134.741 193.5,140C 182.518,142.774 171.518,145.441 160.5,148C 152.899,151.966 146.233,157.133 140.5,163.5C 147.579,154.586 155.579,146.42 164.5,139C 174.309,134.595 183.976,129.928 193.5,125C 200.075,122.69 206.742,120.69 213.5,119C 256.562,110.137 295.062,119.304 329,146.5C 329.464,145.906 329.631,145.239 329.5,144.5 Z"/></g>
<g><path style="opacity:1" fill="#ffd5af" d="M 319.5,94.5 C 317.559,105.784 318.559,116.784 322.5,127.5C 320.338,123.86 318.838,119.86 318,115.5C 317.333,109.167 317.333,102.833 318,96.5C 318.278,95.5842 318.778,94.9175 319.5,94.5 Z"/></g>
<g><path style="opacity:1" fill="#ffd85c" d="M 201.5,117.5 C 186.616,124.276 172.283,132.11 158.5,141C 146.319,149.097 135.319,158.597 125.5,169.5C 124.833,169.833 124.167,170.167 123.5,170.5C 123.709,169.078 124.209,167.745 125,166.5C 134.868,154.965 145.701,144.465 157.5,135C 166.241,131.463 174.574,127.129 182.5,122C 188.506,119.082 194.839,117.582 201.5,117.5 Z"/></g>
<g><path style="opacity:1" fill="#ffcc56" d="M 268.5,112.5 C 288.72,114.455 307.053,121.121 323.5,132.5C 324.167,133.833 324.833,135.167 325.5,136.5C 316.226,132.366 306.893,127.866 297.5,123C 287.499,119.949 277.833,116.449 268.5,112.5 Z"/></g>
<g><path style="opacity:1" fill="#fff66b" d="M 341.5,272.5 C 337.125,269.981 333.125,266.981 329.5,263.5C 337.634,246.03 340.801,227.697 339,208.5C 335.864,194.233 330.031,181.233 321.5,169.5C 318.827,164.313 315.16,159.813 310.5,156C 283.799,137.103 254.799,132.77 223.5,143C 199.007,152.219 174.34,160.719 149.5,168.5C 144.833,168.5 140.167,168.5 135.5,168.5C 137.473,167.194 139.139,165.527 140.5,163.5C 146.233,157.133 152.899,151.966 160.5,148C 171.518,145.441 182.518,142.774 193.5,140C 207.198,134.741 221.198,130.408 235.5,127C 261.53,122.623 286.196,126.623 309.5,139C 320.259,145.794 329.426,154.294 337,164.5C 346.16,200.05 348.66,236.05 344.5,272.5C 343.5,272.5 342.5,272.5 341.5,272.5 Z"/></g>
<g><path style="opacity:1" fill="#fffb73" d="M 321.5,169.5 C 291.03,139.422 256.03,132.588 216.5,149C 211.992,151.753 207.659,154.753 203.5,158C 196.961,165.369 190.294,172.536 183.5,179.5C 172.141,175.379 160.808,171.712 149.5,168.5C 174.34,160.719 199.007,152.219 223.5,143C 254.799,132.77 283.799,137.103 310.5,156C 315.16,159.813 318.827,164.313 321.5,169.5 Z"/></g>
<g><path style="opacity:1" fill="#ffb24b" d="M 138.5,147.5 C 131.078,154.933 124.745,163.266 119.5,172.5C 110.451,177.179 102.618,183.512 96,191.5C 88.7983,199.855 82.6316,208.855 77.5,218.5C 81.0767,198.351 89.2434,180.351 102,164.5C 112.681,155.744 124.848,150.077 138.5,147.5 Z"/></g>
<g><path style="opacity:1" fill="#fffb9f" d="M 261.5,154.5 C 252.476,154.358 243.476,154.692 234.5,155.5C 239.58,153.985 244.914,153.318 250.5,153.5C 254.349,153.501 258.016,153.835 261.5,154.5 Z"/></g>
<g><path style="opacity:1" fill="#fffc6f" d="M 261.5,154.5 C 296.382,160.883 318.215,181.217 327,215.5C 328.542,230.082 326.042,243.916 319.5,257C 310.22,255.015 300.886,253.015 291.5,251C 281.799,250.245 272.132,250.412 262.5,251.5C 268.825,245.675 274.991,239.675 281,233.5C 286.748,221.916 286.081,210.582 279,199.5C 268.118,185.534 254.618,182.034 238.5,189C 234.354,191.803 231.854,195.636 231,200.5C 230.667,208.5 230.333,216.5 230,224.5C 229.302,227.004 228.469,229.337 227.5,231.5C 225.683,224.198 222.516,217.532 218,211.5C 210.953,202.238 203.12,193.738 194.5,186C 203.626,170.275 216.96,160.108 234.5,155.5C 243.476,154.692 252.476,154.358 261.5,154.5 Z"/></g>
<g><path style="opacity:1" fill="#ffeb65" d="M 346.5,164.5 C 349.878,166.895 353.211,169.229 356.5,171.5C 355.761,171.369 355.094,171.536 354.5,172C 360.749,197.742 363.249,223.909 362,250.5C 365.569,261.207 368.735,272.04 371.5,283C 370.552,290.613 369.219,298.113 367.5,305.5C 363.407,296.728 358.074,288.728 351.5,281.5C 353.067,280.319 353.901,278.653 354,276.5C 353.832,259.157 353.999,241.824 354.5,224.5C 353.972,209.725 352.472,195.058 350,180.5C 349.116,175.627 347.616,170.96 345.5,166.5C 345.863,165.817 346.196,165.15 346.5,164.5 Z"/></g>
<g><path style="opacity:1" fill="#ffc18c" d="M 69.5,167.5 C 69.5905,170.152 68.9238,172.485 67.5,174.5C 67.4095,171.848 68.0762,169.515 69.5,167.5 Z"/></g>
<g><path style="opacity:1" fill="#ffe9a9" d="M 125.5,169.5 C 126.833,169.5 128.167,169.5 129.5,169.5C 127.401,170.612 125.067,171.279 122.5,171.5C 122.5,170.833 122.833,170.5 123.5,170.5C 124.167,170.167 124.833,169.833 125.5,169.5 Z"/></g>
<g><path style="opacity:1" fill="#ffe461" d="M 356.5,171.5 C 358.915,172.305 361.249,173.305 363.5,174.5C 364.167,176.167 364.833,177.833 365.5,179.5C 371.242,191.897 375.075,204.897 377,218.5C 378.526,235.678 380.026,252.844 381.5,270C 381.03,284.577 376.696,297.743 368.5,309.5C 367.766,308.292 367.433,306.959 367.5,305.5C 369.219,298.113 370.552,290.613 371.5,283C 368.735,272.04 365.569,261.207 362,250.5C 363.249,223.909 360.749,197.742 354.5,172C 355.094,171.536 355.761,171.369 356.5,171.5 Z"/></g>
<g><path style="opacity:1" fill="#ffc754" d="M 363.5,174.5 C 366.112,175.371 368.779,176.037 371.5,176.5C 371.5,176.833 371.5,177.167 371.5,177.5C 386.126,210.174 392.792,244.508 391.5,280.5C 388.797,295.111 383.63,308.777 376,321.5C 374.618,324.043 372.785,326.043 370.5,327.5C 370.5,323.5 370.5,319.5 370.5,315.5C 379.892,294.589 384.892,272.589 385.5,249.5C 385.271,242.481 384.771,235.481 384,228.5C 382.077,220.887 380.411,213.221 379,205.5C 375.27,196.372 370.77,187.706 365.5,179.5C 364.833,177.833 364.167,176.167 363.5,174.5 Z"/></g>
<g><path style="opacity:1" fill="#ffcfa5" d="M 393.5,173.5 C 391.615,175.311 389.281,176.478 386.5,177C 382.514,177.499 378.514,177.666 374.5,177.5C 373.5,177.5 372.5,177.5 371.5,177.5C 371.5,177.167 371.5,176.833 371.5,176.5C 379.069,177.022 386.403,176.022 393.5,173.5 Z"/></g>
<g><path style="opacity:1" fill="#ffbe50" d="M 371.5,177.5 C 372.5,177.5 373.5,177.5 374.5,177.5C 374.389,178.117 374.056,178.617 373.5,179C 391.983,210.456 398.316,244.289 392.5,280.5C 392.167,280.5 391.833,280.5 391.5,280.5C 392.792,244.508 386.126,210.174 371.5,177.5 Z"/></g>
<g><path style="opacity:1" fill="#fffc6e" d="M 163.5,232.5 C 162.784,232.783 161.951,233.116 161,233.5C 153.246,232.683 145.412,232.183 137.5,232C 125.043,231.22 119.543,224.72 121,212.5C 122.756,203.4 125.589,194.734 129.5,186.5C 140.218,183.836 151.218,183.003 162.5,184C 166.493,185.122 170.326,186.622 174,188.5C 171.051,196.667 168.051,205 165,213.5C 163.893,219.787 163.393,226.12 163.5,232.5 Z"/></g>
<g><path style="opacity:1" fill="#fff56b" d="M 262.5,251.5 C 242.404,263.807 237.404,280.807 247.5,302.5C 243.03,301.984 239.197,299.651 236,295.5C 232.139,289.918 230.306,283.752 230.5,277C 231.273,270.489 231.773,263.989 232,257.5C 229.03,255.49 225.863,255.49 222.5,257.5C 221.702,257.043 221.369,256.376 221.5,255.5C 226.315,248.239 228.315,240.239 227.5,231.5C 228.469,229.337 229.302,227.004 230,224.5C 230.333,216.5 230.667,208.5 231,200.5C 231.854,195.636 234.354,191.803 238.5,189C 254.618,182.034 268.118,185.534 279,199.5C 286.081,210.582 286.748,221.916 281,233.5C 274.991,239.675 268.825,245.675 262.5,251.5 Z"/></g>
<g><path style="opacity:1" fill="#ffd3ac" d="M 443.5,178.5 C 444.924,180.515 445.59,182.848 445.5,185.5C 444.076,183.485 443.41,181.152 443.5,178.5 Z"/></g>
<g><path style="opacity:1" fill="#fff66b" d="M 129.5,186.5 C 125.589,194.734 122.756,203.4 121,212.5C 119.543,224.72 125.043,231.22 137.5,232C 145.412,232.183 153.246,232.683 161,233.5C 161.951,233.116 162.784,232.783 163.5,232.5C 164.919,238.385 166.253,244.385 167.5,250.5C 167.53,251.497 167.03,252.164 166,252.5C 157.192,250.215 148.359,250.049 139.5,252C 137.391,253.141 135.558,254.641 134,256.5C 131.667,260.833 129.333,265.167 127,269.5C 125.12,272.192 122.62,273.359 119.5,273C 112.349,259.154 109.682,244.321 111.5,228.5C 113.573,221.664 115.073,214.664 116,207.5C 119.266,200.679 122.099,194.012 124.5,187.5C 126.117,186.962 127.784,186.629 129.5,186.5 Z"/></g>
<g><path style="opacity:1" fill="#ffeb65" d="M 124.5,187.5 C 122.099,194.012 119.266,200.679 116,207.5C 115.073,214.664 113.573,221.664 111.5,228.5C 107.629,248.275 109.462,267.609 117,286.5C 122.85,296.011 131.35,301.344 142.5,302.5C 142.833,299.833 143.167,297.167 143.5,294.5C 139.855,285.176 139.688,275.842 143,266.5C 149.091,263.621 154.924,264.121 160.5,268C 163.98,270.646 167.314,273.479 170.5,276.5C 177.49,285.147 183.99,294.147 190,303.5C 197.585,311.042 206.752,315.542 217.5,317C 230.5,317.667 243.5,317.667 256.5,317C 259.797,316.796 262.797,315.963 265.5,314.5C 276.74,313.531 287.406,310.531 297.5,305.5C 299.783,304.971 302.117,304.637 304.5,304.5C 319.073,308.848 332.407,306.514 344.5,297.5C 345.183,297.863 345.85,298.196 346.5,298.5C 350.304,303.553 352.971,309.22 354.5,315.5C 355.162,319.466 355.495,323.466 355.5,327.5C 352.882,330.785 349.882,333.785 346.5,336.5C 345.201,335.91 344.368,334.91 344,333.5C 343.586,333.957 343.086,334.291 342.5,334.5C 340.844,323.68 334.51,317.846 323.5,317C 314.461,313.827 305.461,313.827 296.5,317C 284.357,323.736 271.69,329.403 258.5,334C 255.5,335.667 253.167,338 251.5,341C 256.611,353.712 261.278,366.545 265.5,379.5C 259.234,377.602 253.234,375.102 247.5,372C 241.461,367.649 235.128,363.815 228.5,360.5C 219.575,365.426 212.241,372.093 206.5,380.5C 203.498,376.501 199.831,373.168 195.5,370.5C 199.124,361.919 203.291,353.586 208,345.5C 208.667,343.5 208.667,341.5 208,339.5C 202.165,335.41 195.665,332.91 188.5,332C 181.956,329.812 177.123,325.646 174,319.5C 172.365,311.592 169.365,304.259 165,297.5C 162.119,292.715 158.119,291.049 153,292.5C 150.768,297.965 147.768,302.965 144,307.5C 143.421,308.928 143.588,310.262 144.5,311.5C 137.202,308.185 130.202,304.351 123.5,300C 120.043,297.613 117.043,294.78 114.5,291.5C 115.043,291.44 115.376,291.107 115.5,290.5C 111.767,282.237 109.601,273.57 109,264.5C 106.197,240.126 109.364,216.626 118.5,194C 118.167,193.5 117.833,193 117.5,192.5C 116.06,193.952 114.394,194.952 112.5,195.5C 115.803,191.844 119.803,189.178 124.5,187.5 Z"/></g>
<g><path style="opacity:1" fill="#ffda5c" d="M 365.5,179.5 C 370.77,187.706 375.27,196.372 379,205.5C 380.411,213.221 382.077,220.887 384,228.5C 384.771,235.481 385.271,242.481 385.5,249.5C 384.892,272.589 379.892,294.589 370.5,315.5C 369.542,313.698 368.875,311.698 368.5,309.5C 376.696,297.743 381.03,284.577 381.5,270C 380.026,252.844 378.526,235.678 377,218.5C 375.075,204.897 371.242,191.897 365.5,179.5 Z"/></g>
<g><path style="opacity:1" fill="#ffe361" d="M 114.5,291.5 C 109.167,288.167 104.833,283.833 101.5,278.5C 102.097,278.265 102.43,277.765 102.5,277C 101.614,272.849 100.78,268.682 100,264.5C 99.3333,251.5 99.3333,238.5 100,225.5C 101.044,224.377 101.71,223.044 102,221.5C 102.392,217.472 102.892,213.472 103.5,209.5C 104.319,207.228 104.985,204.894 105.5,202.5C 107.5,199.833 109.833,197.5 112.5,195.5C 114.394,194.952 116.06,193.952 117.5,192.5C 117.833,193 118.167,193.5 118.5,194C 109.364,216.626 106.197,240.126 109,264.5C 109.601,273.57 111.767,282.237 115.5,290.5C 115.376,291.107 115.043,291.44 114.5,291.5 Z"/></g>
<g><path style="opacity:1" fill="#fffdfb" d="M 420.5,191.5 C 424.984,193.462 428.817,196.462 432,200.5C 440.903,216.493 439.07,230.826 426.5,243.5C 425.508,243.328 424.842,243.662 424.5,244.5C 423.391,244.557 422.391,244.89 421.5,245.5C 420.5,245.5 419.5,245.5 418.5,245.5C 403.846,246.189 395.513,239.189 393.5,224.5C 393.152,217.045 393.818,209.712 395.5,202.5C 397.257,197.575 400.59,194.075 405.5,192C 410.489,191.501 415.489,191.334 420.5,191.5 Z"/></g>
<g><path style="opacity:1" fill="#ffbd85" d="M 65.5,182.5 C 65.0925,187.537 64.4258,192.537 63.5,197.5C 63.1667,197.5 62.8333,197.5 62.5,197.5C 62.6778,192.205 63.6778,187.205 65.5,182.5 Z"/></g>
<g><path style="opacity:1" fill="#fffc71" d="M 211.5,239.5 C 210.635,241.677 208.968,242.677 206.5,242.5C 197.174,241.202 188.008,239.202 179,236.5C 177.989,237.056 177.156,237.722 176.5,238.5C 175.315,231.983 175.315,225.316 176.5,218.5C 178.28,217.01 178.946,215.01 178.5,212.5C 180.383,206.4 183.55,201.067 188,196.5C 202.405,204.325 210.572,216.325 212.5,232.5C 212.44,234.921 212.107,237.254 211.5,239.5 Z"/></g>
<g><path style="opacity:1" fill="#ffdaba" d="M 62.5,199.5 C 62.1156,204.01 61.4489,208.343 60.5,212.5C 60.3345,208.486 60.5012,204.486 61,200.5C 61.3826,199.944 61.8826,199.611 62.5,199.5 Z"/></g>
<g><path style="opacity:1" fill="#ffdcbe" d="M 446.5,194.5 C 448.947,199.438 449.947,204.772 449.5,210.5C 447.857,205.415 446.857,200.082 446.5,194.5 Z"/></g>
<g><path style="opacity:1" fill="#ffbc55" d="M 105.5,202.5 C 104.985,204.894 104.319,207.228 103.5,209.5C 101.247,214.964 99.4132,220.631 98,226.5C 95.9685,242.886 96.1352,259.219 98.5,275.5C 94.1483,271.474 91.315,266.474 90,260.5C 86.9254,238.901 92.0921,219.568 105.5,202.5 Z"/></g>
<g><path style="opacity:1" fill="#ffe0c5" d="M 395.5,202.5 C 393.818,209.712 393.152,217.045 393.5,224.5C 392.348,219.015 392.182,213.349 393,207.5C 393.374,205.509 394.207,203.842 395.5,202.5 Z"/></g>
<g><path style="opacity:1" fill="#fffaa4" d="M 178.5,212.5 C 178.946,215.01 178.28,217.01 176.5,218.5C 176.595,216.214 177.262,214.214 178.5,212.5 Z"/></g>
<g><path style="opacity:1" fill="#fff068" d="M 111.5,228.5 C 109.682,244.321 112.349,259.154 119.5,273C 122.62,273.359 125.12,272.192 127,269.5C 129.333,265.167 131.667,260.833 134,256.5C 135.558,254.641 137.391,253.141 139.5,252C 148.359,250.049 157.192,250.215 166,252.5C 167.03,252.164 167.53,251.497 167.5,250.5C 168.884,254.287 170.717,257.954 173,261.5C 175.106,264.118 177.606,266.118 180.5,267.5C 181.263,268.268 182.263,268.768 183.5,269C 190.014,269.82 196.347,269.653 202.5,268.5C 210.319,266.417 216.652,262.084 221.5,255.5C 221.369,256.376 221.702,257.043 222.5,257.5C 225.863,255.49 229.03,255.49 232,257.5C 231.773,263.989 231.273,270.489 230.5,277C 230.306,283.752 232.139,289.918 236,295.5C 239.197,299.651 243.03,301.984 247.5,302.5C 251.813,308.992 257.813,312.992 265.5,314.5C 262.797,315.963 259.797,316.796 256.5,317C 243.5,317.667 230.5,317.667 217.5,317C 206.752,315.542 197.585,311.042 190,303.5C 183.99,294.147 177.49,285.147 170.5,276.5C 167.314,273.479 163.98,270.646 160.5,268C 154.924,264.121 149.091,263.621 143,266.5C 139.688,275.842 139.855,285.176 143.5,294.5C 143.167,297.167 142.833,299.833 142.5,302.5C 131.35,301.344 122.85,296.011 117,286.5C 109.462,267.609 107.629,248.275 111.5,228.5 Z"/></g>
<g><path style="opacity:1" fill="#ffcc56" d="M 103.5,209.5 C 102.892,213.472 102.392,217.472 102,221.5C 101.71,223.044 101.044,224.377 100,225.5C 99.3333,238.5 99.3333,251.5 100,264.5C 100.78,268.682 101.614,272.849 102.5,277C 102.43,277.765 102.097,278.265 101.5,278.5C 100.167,277.833 99.1667,276.833 98.5,275.5C 96.1352,259.219 95.9685,242.886 98,226.5C 99.4132,220.631 101.247,214.964 103.5,209.5 Z"/></g>
<g><path style="opacity:1" fill="#ffab48" d="M 408.5,153.5 C 408.34,155.199 408.506,156.866 409,158.5C 414.13,169.058 417.964,180.058 420.5,191.5C 415.489,191.334 410.489,191.501 405.5,192C 400.59,194.075 397.257,197.575 395.5,202.5C 394.207,203.842 393.374,205.509 393,207.5C 392.182,213.349 392.348,219.015 393.5,224.5C 395.513,239.189 403.846,246.189 418.5,245.5C 416.052,246.473 413.385,246.806 410.5,246.5C 409.505,264.612 407.672,282.612 405,300.5C 395.059,334.23 375.892,361.397 347.5,382C 346.552,382.483 345.552,382.649 344.5,382.5C 348.195,378.474 351.862,374.474 355.5,370.5C 357.727,369.599 358.727,367.933 358.5,365.5C 365.026,361.816 370.526,356.816 375,350.5C 387,333.167 393.833,314 395.5,293C 395.066,288.658 394.066,284.492 392.5,280.5C 398.316,244.289 391.983,210.456 373.5,179C 374.056,178.617 374.389,178.117 374.5,177.5C 378.514,177.666 382.514,177.499 386.5,177C 389.281,176.478 391.615,175.311 393.5,173.5C 395.273,172.108 397.273,170.941 399.5,170C 403.447,164.934 406.447,159.434 408.5,153.5 Z"/></g>
<g><path style="opacity:1" fill="#fff66e" d="M 211.5,239.5 C 210.613,256.792 201.946,262.292 185.5,256C 179.826,251.496 176.826,245.663 176.5,238.5C 177.156,237.722 177.989,237.056 179,236.5C 188.008,239.202 197.174,241.202 206.5,242.5C 208.968,242.677 210.635,241.677 211.5,239.5 Z"/></g>
<g><path style="opacity:1" fill="#ff9f40" d="M 424.5,244.5 C 424.463,250.535 423.963,256.535 423,262.5C 418.562,280.029 413.562,297.362 408,314.5C 399.687,332.132 389.02,348.132 376,362.5C 369.013,374.826 359.846,385.326 348.5,394C 338.427,399.186 327.761,402.519 316.5,404C 313.029,406.072 309.362,407.572 305.5,408.5C 309.336,406.416 313.003,404.083 316.5,401.5C 321.175,398.827 325.841,396.161 330.5,393.5C 351.974,383.876 369.808,369.542 384,350.5C 391.652,336.532 399.319,322.532 407,308.5C 414.524,288.075 419.357,267.075 421.5,245.5C 422.391,244.89 423.391,244.557 424.5,244.5 Z"/></g>
<g><path style="opacity:1" fill="#ff993e" d="M 426.5,243.5 C 424.995,265.859 420.161,287.526 412,308.5C 411.588,315.525 410.921,322.525 410,329.5C 405.5,339.833 401,350.167 396.5,360.5C 396.624,361.107 396.957,361.44 397.5,361.5C 369.149,392.846 334.149,412.513 292.5,420.5C 288.637,420.462 284.804,420.795 281,421.5C 279.833,421.167 278.667,420.833 277.5,420.5C 277.833,420.167 278.167,419.833 278.5,419.5C 287.703,416.057 296.703,412.39 305.5,408.5C 309.362,407.572 313.029,406.072 316.5,404C 327.761,402.519 338.427,399.186 348.5,394C 359.846,385.326 369.013,374.826 376,362.5C 389.02,348.132 399.687,332.132 408,314.5C 413.562,297.362 418.562,280.029 423,262.5C 423.963,256.535 424.463,250.535 424.5,244.5C 424.842,243.662 425.508,243.328 426.5,243.5 Z"/></g>
<g><path style="opacity:1" fill="#ffa644" d="M 418.5,245.5 C 419.5,245.5 420.5,245.5 421.5,245.5C 419.357,267.075 414.524,288.075 407,308.5C 399.319,322.532 391.652,336.532 384,350.5C 369.808,369.542 351.974,383.876 330.5,393.5C 332.521,392.145 334.188,390.479 335.5,388.5C 337.946,385.769 340.946,383.769 344.5,382.5C 345.552,382.649 346.552,382.483 347.5,382C 375.892,361.397 395.059,334.23 405,300.5C 407.672,282.612 409.505,264.612 410.5,246.5C 413.385,246.806 416.052,246.473 418.5,245.5 Z"/></g>
<g><path style="opacity:1" fill="#ffdbbc" d="M 60.5,247.5 C 61.9715,251.919 62.6382,256.586 62.5,261.5C 60.8958,257.1 60.2291,252.434 60.5,247.5 Z"/></g>
<g><path style="opacity:1" fill="#ffdec1" d="M 449.5,246.5 C 449.687,255.207 448.354,263.54 445.5,271.5C 446.531,262.986 447.864,254.653 449.5,246.5 Z"/></g>
<g><path style="opacity:1" fill="#fffb6f" d="M 254.5,287.5 C 253.735,284.904 253.401,282.237 253.5,279.5C 268.272,261.198 286.606,256.698 308.5,266C 310.813,266.641 312.48,267.974 313.5,270C 305.182,287.996 291.348,298.829 272,302.5C 262.616,301.614 256.783,296.614 254.5,287.5 Z"/></g>
<g><path style="opacity:1" fill="#ffb24e" d="M 74.5,255.5 C 76.2093,259.963 77.7093,264.629 79,269.5C 86.2188,281.548 95.0521,292.214 105.5,301.5C 106.75,304.006 107.416,306.673 107.5,309.5C 85.8145,298.145 74.8145,280.145 74.5,255.5 Z"/></g>
<g><path style="opacity:1" fill="#fffbc9" d="M 180.5,267.5 C 187.799,268.35 195.132,268.683 202.5,268.5C 196.347,269.653 190.014,269.82 183.5,269C 182.263,268.768 181.263,268.268 180.5,267.5 Z"/></g>
<g><path style="opacity:1" fill="#ffd3ac" d="M 64.5,273.5 C 65.1667,274.5 65.8333,275.5 66.5,276.5C 66.5,277.833 66.5,279.167 66.5,280.5C 65.0762,278.485 64.4095,276.152 64.5,273.5 Z"/></g>
<g><path style="opacity:1" fill="#fffaae" d="M 253.5,279.5 C 253.401,282.237 253.735,284.904 254.5,287.5C 252.974,286.508 252.307,285.008 252.5,283C 252.514,281.615 252.848,280.449 253.5,279.5 Z"/></g>
<g><path style="opacity:1" fill="#fff16b" d="M 346.5,298.5 C 345.85,298.196 345.183,297.863 344.5,297.5C 332.407,306.514 319.073,308.848 304.5,304.5C 302.117,304.637 299.783,304.971 297.5,305.5C 301.32,302.53 305.32,299.696 309.5,297C 315.762,290.579 321.429,283.746 326.5,276.5C 335.655,281.651 342.321,288.984 346.5,298.5 Z"/></g>
<g><path style="opacity:1" fill="#ffe562" d="M 206.5,380.5 C 205.167,382.167 203.833,383.833 202.5,385.5C 192.038,377.76 180.704,371.26 168.5,366C 163.833,362.667 159.167,359.333 154.5,356C 153.54,354.581 152.707,353.081 152,351.5C 149.213,349.953 146.88,347.953 145,345.5C 144.617,346.056 144.117,346.389 143.5,346.5C 147.31,338.427 149.644,329.927 150.5,321C 150.167,318.833 149.833,316.667 149.5,314.5C 147.604,313.725 145.937,312.725 144.5,311.5C 143.588,310.262 143.421,308.928 144,307.5C 147.768,302.965 150.768,297.965 153,292.5C 158.119,291.049 162.119,292.715 165,297.5C 169.365,304.259 172.365,311.592 174,319.5C 177.123,325.646 181.956,329.812 188.5,332C 195.665,332.91 202.165,335.41 208,339.5C 208.667,341.5 208.667,343.5 208,345.5C 203.291,353.586 199.124,361.919 195.5,370.5C 199.831,373.168 203.498,376.501 206.5,380.5 Z"/></g>
<g><path style="opacity:1" fill="#ffb54d" d="M 391.5,280.5 C 391.833,280.5 392.167,280.5 392.5,280.5C 394.066,284.492 395.066,288.658 395.5,293C 393.833,314 387,333.167 375,350.5C 370.526,356.816 365.026,361.816 358.5,365.5C 358.727,367.933 357.727,369.599 355.5,370.5C 363.062,357.151 368.062,342.817 370.5,327.5C 372.785,326.043 374.618,324.043 376,321.5C 383.63,308.777 388.797,295.111 391.5,280.5 Z"/></g>
<g><path style="opacity:1" fill="#ffc252" d="M 105.5,301.5 C 107.191,302.864 108.858,304.197 110.5,305.5C 113.019,310.203 116.185,314.537 120,318.5C 120.854,324.736 122.354,330.736 124.5,336.5C 121.608,334.461 119.608,331.794 118.5,328.5C 114.442,322.43 110.775,316.097 107.5,309.5C 107.416,306.673 106.75,304.006 105.5,301.5 Z"/></g>
<g><path style="opacity:1" fill="#ffcd57" d="M 110.5,305.5 C 114.833,308.167 119.167,310.833 123.5,313.5C 127.101,319.702 130.434,326.036 133.5,332.5C 132.167,335.5 130.833,338.5 129.5,341.5C 128.883,341.611 128.383,341.944 128,342.5C 126.558,340.609 125.391,338.609 124.5,336.5C 122.354,330.736 120.854,324.736 120,318.5C 116.185,314.537 113.019,310.203 110.5,305.5 Z"/></g>
<g><path style="opacity:1" fill="#ffe461" d="M 355.5,327.5 C 355.5,329.833 355.5,332.167 355.5,334.5C 354.883,334.389 354.383,334.056 354,333.5C 351.5,336.667 349,339.833 346.5,343C 341.603,345.889 337.27,349.555 333.5,354C 316.3,366.599 297.3,375.432 276.5,380.5C 275.287,380.747 274.62,381.414 274.5,382.5C 271.215,382.072 268.215,381.072 265.5,379.5C 261.278,366.545 256.611,353.712 251.5,341C 253.167,338 255.5,335.667 258.5,334C 271.69,329.403 284.357,323.736 296.5,317C 305.461,313.827 314.461,313.827 323.5,317C 334.51,317.846 340.844,323.68 342.5,334.5C 343.086,334.291 343.586,333.957 344,333.5C 344.368,334.91 345.201,335.91 346.5,336.5C 349.882,333.785 352.882,330.785 355.5,327.5 Z"/></g>
<g><path style="opacity:1" fill="#ffea6a" d="M 123.5,313.5 C 127.913,316.87 132.913,318.87 138.5,319.5C 137.67,324.16 136.003,328.493 133.5,332.5C 130.434,326.036 127.101,319.702 123.5,313.5 Z"/></g>
<g><path style="opacity:1" fill="#fff6a9" d="M 354.5,315.5 C 356.039,318.865 356.706,322.531 356.5,326.5C 356.497,329.355 356.164,332.022 355.5,334.5C 355.5,332.167 355.5,329.833 355.5,327.5C 355.495,323.466 355.162,319.466 354.5,315.5 Z"/></g>
<g><path style="opacity:1" fill="#ffb24c" d="M 118.5,328.5 C 119.608,331.794 121.608,334.461 124.5,336.5C 125.391,338.609 126.558,340.609 128,342.5C 128.383,341.944 128.883,341.611 129.5,341.5C 125.903,349.699 122.569,358.033 119.5,366.5C 119,366.833 118.5,367.167 118,367.5C 116.598,366.355 115.431,365.022 114.5,363.5C 114.163,357 114.663,350.333 116,343.5C 118.869,338.761 119.702,333.761 118.5,328.5 Z"/></g>
<g><path style="opacity:1" fill="#ffce59" d="M 353.5,340.5 C 352.38,347.739 349.38,354.073 344.5,359.5C 329.212,370.487 312.545,379.487 294.5,386.5C 291.391,386.736 288.391,386.403 285.5,385.5C 312.07,375.917 334.737,360.917 353.5,340.5 Z"/></g>
<g><path style="opacity:1" fill="#ffdd5f" d="M 355.5,334.5 C 355.125,336.698 354.458,338.698 353.5,340.5C 334.737,360.917 312.07,375.917 285.5,385.5C 281.466,385.483 277.799,384.483 274.5,382.5C 274.62,381.414 275.287,380.747 276.5,380.5C 297.3,375.432 316.3,366.599 333.5,354C 337.27,349.555 341.603,345.889 346.5,343C 349,339.833 351.5,336.667 354,333.5C 354.383,334.056 354.883,334.389 355.5,334.5 Z"/></g>
<g><path style="opacity:1" fill="#ffc754" d="M 202.5,385.5 C 202.068,386.71 201.401,387.71 200.5,388.5C 185.894,384.863 172.227,379.03 159.5,371C 154.293,367.007 148.96,363.007 143.5,359C 141.393,357.736 140.393,355.903 140.5,353.5C 141.227,351.046 142.227,348.713 143.5,346.5C 144.117,346.389 144.617,346.056 145,345.5C 146.88,347.953 149.213,349.953 152,351.5C 152.707,353.081 153.54,354.581 154.5,356C 159.167,359.333 163.833,362.667 168.5,366C 180.704,371.26 192.038,377.76 202.5,385.5 Z"/></g>
<g><path style="opacity:1" fill="#ffae4a" d="M 140.5,353.5 C 140.393,355.903 141.393,357.736 143.5,359C 148.96,363.007 154.293,367.007 159.5,371C 172.227,379.03 185.894,384.863 200.5,388.5C 195.047,395.792 189.381,402.958 183.5,410C 176.743,409.135 170.41,406.802 164.5,403C 157.5,398.667 150.5,394.333 143.5,390C 138.993,386.324 134.659,382.49 130.5,378.5C 133.481,369.863 136.814,361.529 140.5,353.5 Z"/></g>
<g><path style="opacity:1" fill="#ffbc55" d="M 344.5,359.5 C 332.532,377.121 315.866,386.121 294.5,386.5C 312.545,379.487 329.212,370.487 344.5,359.5 Z"/></g>
<g><path style="opacity:0.97" fill="#582f76" d="M 72.5,371.5 C 73.675,371.281 74.675,371.614 75.5,372.5C 104.432,408.464 140.765,433.798 184.5,448.5C 186.515,449.924 188.848,450.59 191.5,450.5C 193.515,451.924 195.848,452.59 198.5,452.5C 203.978,453.196 209.311,454.53 214.5,456.5C 212.925,460.078 210.925,463.411 208.5,466.5C 205.933,465.525 203.267,464.858 200.5,464.5C 181.392,460.604 163.392,453.937 146.5,444.5C 121.151,432.137 99.4846,414.971 81.5,393C 80.8333,392.333 80.1667,392.333 79.5,393C 87.9962,407.826 97.6628,421.826 108.5,435C 123.224,446.03 138.891,455.53 155.5,463.5C 163.248,467.656 171.248,471.322 179.5,474.5C 186.648,475.492 193.981,475.825 201.5,475.5C 199.021,481.125 196.021,486.458 192.5,491.5C 189.779,491.037 187.112,490.371 184.5,489.5C 169.084,484.018 154.084,477.351 139.5,469.5C 112.663,456.527 88.6631,439.36 67.5,418C 66.6683,417.312 66.0016,417.479 65.5,418.5C 73.798,438.561 85.1313,456.728 99.5,473C 114.244,483.532 130.244,491.699 147.5,497.5C 149.297,498.73 151.297,499.396 153.5,499.5C 155.277,500.6 157.277,501.434 159.5,502C 167.159,502.5 174.826,502.666 182.5,502.5C 182.5,503.5 182.5,504.5 182.5,505.5C 181.5,507.5 180.5,509.5 179.5,511.5C 176.167,511.5 172.833,511.5 169.5,511.5C 114.167,500.647 70.6674,471.98 39,425.5C 38.3333,424.167 38.3333,422.833 39,421.5C 49.5743,404.428 60.741,387.761 72.5,371.5 Z"/></g>
<g><path style="opacity:1" fill="#ffe867" d="M 247.5,385.5 C 243.863,385.985 239.863,386.318 235.5,386.5C 230.588,386.579 225.921,385.912 221.5,384.5C 223.868,380.407 226.702,376.74 230,373.5C 236.001,377.348 241.834,381.348 247.5,385.5 Z"/></g>
<g><path style="opacity:1" fill="#ffdb5f" d="M 221.5,384.5 C 225.921,385.912 230.588,386.579 235.5,386.5C 239.863,386.318 243.863,385.985 247.5,385.5C 251.366,387.264 255.033,389.264 258.5,391.5C 245.115,392.43 231.781,391.763 218.5,389.5C 219.11,387.566 220.11,385.899 221.5,384.5 Z"/></g>
<g><path style="opacity:1" fill="#ffb64f" d="M 261.5,392.5 C 267.323,394.566 273.323,396.066 279.5,397C 289.494,397.5 299.494,397.666 309.5,397.5C 302.899,400.389 295.899,402.222 288.5,403C 278.962,403.436 269.462,404.269 260,405.5C 252.232,404.372 244.732,402.206 237.5,399C 233.5,398.333 229.5,398.333 225.5,399C 217.392,403.72 209.059,407.887 200.5,411.5C 205.51,405.46 210.51,399.46 215.5,393.5C 230.76,393.826 246.093,393.492 261.5,392.5 Z"/></g>
<g><path style="opacity:1" fill="#ffc755" d="M 218.5,389.5 C 231.781,391.763 245.115,392.43 258.5,391.5C 259.791,391.263 260.791,391.596 261.5,392.5C 246.093,393.492 230.76,393.826 215.5,393.5C 215.738,391.596 216.738,390.262 218.5,389.5 Z"/></g>
<g><path style="opacity:1" fill="#ffcb8f" d="M 325.5,392.5 C 323.044,394.868 320.044,395.868 316.5,395.5C 319.215,393.928 322.215,392.928 325.5,392.5 Z"/></g>
<g><path style="opacity:1" fill="#ffaf49" d="M 335.5,388.5 C 334.188,390.479 332.521,392.145 330.5,393.5C 325.841,396.161 321.175,398.827 316.5,401.5C 299.936,408.744 282.603,413.244 264.5,415C 250.198,416.18 235.865,416.847 221.5,417C 218.5,417.333 215.5,417.667 212.5,418C 211.584,418.278 210.918,418.778 210.5,419.5C 206.019,418.63 201.686,417.297 197.5,415.5C 198.524,414.148 199.524,412.815 200.5,411.5C 209.059,407.887 217.392,403.72 225.5,399C 229.5,398.333 233.5,398.333 237.5,399C 244.732,402.206 252.232,404.372 260,405.5C 269.462,404.269 278.962,403.436 288.5,403C 295.899,402.222 302.899,400.389 309.5,397.5C 312.01,397.073 314.343,396.407 316.5,395.5C 320.044,395.868 323.044,394.868 325.5,392.5C 329.033,391.626 332.366,390.293 335.5,388.5 Z"/></g>
<g><path style="opacity:1" fill="#8e68a8" d="M 146.5,444.5 C 145.761,444.369 145.094,444.536 144.5,445C 148.574,450.99 152.24,457.156 155.5,463.5C 138.891,455.53 123.224,446.03 108.5,435C 97.6628,421.826 87.9962,407.826 79.5,393C 80.1667,392.333 80.8333,392.333 81.5,393C 99.4846,414.971 121.151,432.137 146.5,444.5 Z"/></g>
<g><path style="opacity:1" fill="#ffa547" d="M 316.5,401.5 C 313.003,404.083 309.336,406.416 305.5,408.5C 296.703,412.39 287.703,416.057 278.5,419.5C 278.167,419.833 277.833,420.167 277.5,420.5C 278.667,420.833 279.833,421.167 281,421.5C 284.804,420.795 288.637,420.462 292.5,420.5C 284.797,422.756 276.797,423.922 268.5,424C 257.14,424.743 245.807,424.577 234.5,423.5C 229.766,421.855 224.766,421.189 219.5,421.5C 216.311,421.142 213.311,420.475 210.5,419.5C 210.918,418.778 211.584,418.278 212.5,418C 215.5,417.667 218.5,417.333 221.5,417C 235.865,416.847 250.198,416.18 264.5,415C 282.603,413.244 299.936,408.744 316.5,401.5 Z"/></g>
<g><path style="opacity:1" fill="#8f69a9" d="M 139.5,469.5 C 138.903,469.735 138.57,470.235 138.5,471C 140.623,480.203 143.623,489.036 147.5,497.5C 130.244,491.699 114.244,483.532 99.5,473C 85.1313,456.728 73.798,438.561 65.5,418.5C 66.0016,417.479 66.6683,417.312 67.5,418C 88.6631,439.36 112.663,456.527 139.5,469.5 Z"/></g>
<g><path style="opacity:1" fill="#ffb97e" d="M 219.5,421.5 C 224.766,421.189 229.766,421.855 234.5,423.5C 229.269,423.556 224.269,422.889 219.5,421.5 Z"/></g>
<g><path style="opacity:1" fill="#c4a5da" d="M 146.5,444.5 C 163.392,453.937 181.392,460.604 200.5,464.5C 203.106,465.85 203.106,467.35 200.5,469C 196.25,470.127 192.25,471.793 188.5,474C 185.518,474.498 182.518,474.665 179.5,474.5C 171.248,471.322 163.248,467.656 155.5,463.5C 152.24,457.156 148.574,450.99 144.5,445C 145.094,444.536 145.761,444.369 146.5,444.5 Z"/></g>
<g><path style="opacity:1" fill="#b5a8ba" d="M 184.5,448.5 C 187.152,448.41 189.485,449.076 191.5,450.5C 188.848,450.59 186.515,449.924 184.5,448.5 Z"/></g>
<g><path style="opacity:1" fill="#b5a9ba" d="M 191.5,450.5 C 194.228,450.171 196.562,450.837 198.5,452.5C 195.848,452.59 193.515,451.924 191.5,450.5 Z"/></g>
<g><path style="opacity:0.995" fill="#906aa6" d="M 200.5,464.5 C 203.267,464.858 205.933,465.525 208.5,466.5C 207.306,470.363 204.973,473.363 201.5,475.5C 193.981,475.825 186.648,475.492 179.5,474.5C 182.518,474.665 185.518,474.498 188.5,474C 192.25,471.793 196.25,470.127 200.5,469C 203.106,467.35 203.106,465.85 200.5,464.5 Z"/></g>
<g><path style="opacity:1" fill="#c5a6db" d="M 139.5,469.5 C 154.084,477.351 169.084,484.018 184.5,489.5C 178.616,494.561 172.116,498.561 165,501.5C 161.139,500.933 157.305,500.267 153.5,499.5C 151.297,499.396 149.297,498.73 147.5,497.5C 143.623,489.036 140.623,480.203 138.5,471C 138.57,470.235 138.903,469.735 139.5,469.5 Z"/></g>
<g><path style="opacity:0.994" fill="#916ca8" d="M 184.5,489.5 C 187.112,490.371 189.779,491.037 192.5,491.5C 189.154,496.204 185.821,500.871 182.5,505.5C 182.5,504.5 182.5,503.5 182.5,502.5C 174.826,502.666 167.159,502.5 159.5,502C 157.277,501.434 155.277,500.6 153.5,499.5C 157.305,500.267 161.139,500.933 165,501.5C 172.116,498.561 178.616,494.561 184.5,489.5 Z"/></g>
</svg>
